HIERARCHY
ROOT pelvis
{
  OFFSET 0 100 0
  CHANNELS 6 Xposition Yposition Zposition Zrotation Xrotation Yrotation
  JOINT pelvis_right_femur
  {
    OFFSET -10.78128 -3.44521 -0.5502486
    CHANNELS 3 Zrotation Xrotation Yrotation
    JOINT right_femur_tibia
    {
      OFFSET -0.8047443 -44.0398 -0.1307829
      CHANNELS 3 Zrotation Xrotation Yrotation
      JOINT right_tibia_foot
      {
        OFFSET 3.006224 -47.83518 -5
        CHANNELS 3 Zrotation Xrotation Yrotation
        End Site
        {
          OFFSET 0 -5 15
        }
      }
    }
  }
  JOINT pelvis_left_femur
  {
    OFFSET 10.78128 -3.44521 -0.5502486
    CHANNELS 3 Zrotation Xrotation Yrotation
    JOINT left_femur_tibia
    {
      OFFSET 0.8047443 -44.0398 -0.1307829
      CHANNELS 3 Zrotation Xrotation Yrotation
      JOINT left_tibia_foot
      {
        OFFSET -4.370144 -48.10324 -4.275266
        CHANNELS 3 Zrotation Xrotation Yrotation
        End Site
        {
          OFFSET 0 -5 15
        }
      }
    }
  }
  JOINT pelvis_spine1
  {
    OFFSET 0 6.468898 -3.129235
    CHANNELS 3 Zrotation Xrotation Yrotation
    JOINT spine1
    {
      OFFSET 0 23.15396 4.99043
      CHANNELS 3 Zrotation Xrotation Yrotation
      JOINT spine2
      {
        OFFSET 0 20.79997 -5.064912
        CHANNELS 3 Zrotation Xrotation Yrotation
        JOINT neck
        {
          OFFSET 0 14.38658 9.616178
          CHANNELS 3 Zrotation Xrotation Yrotation
          End Site
          {
            OFFSET 0 20 0
          }
        }
      }
      JOINT right_manubrium
      {
        OFFSET -5.722621 16.35077 3.967754
        CHANNELS 3 Zrotation Xrotation Yrotation
        JOINT right_clavicle
        {
          OFFSET -13.16364 1.694482 -4.693211
          CHANNELS 3 Zrotation Xrotation Yrotation
          JOINT right_humerus
          {
            OFFSET -28.5034 -0.3100689 -2.792744
            CHANNELS 3 Zrotation Xrotation Yrotation
            JOINT right_radius
            {
              OFFSET -25.15693 0.02248979 -1.271978
              CHANNELS 3 Zrotation Xrotation Yrotation
              End Site
              {
                OFFSET -15 0 0
              }
            }
          }
        }
      }
      JOINT left_manubrium
      {
        OFFSET 5.722621 16.35077 3.967754
        CHANNELS 3 Zrotation Xrotation Yrotation
        JOINT left_clavicle
        {
          OFFSET 13.16364 1.694482 -4.693211
          CHANNELS 3 Zrotation Xrotation Yrotation
          JOINT left_humerus
          {
            OFFSET 29.39168 -1.063119 -2.237045
            CHANNELS 3 Zrotation Xrotation Yrotation
            JOINT left_radius
            {
              OFFSET 24.59957 -0.9528479 0.9047498
              CHANNELS 3 Zrotation Xrotation Yrotation
              End Site
              {
                OFFSET 15 -0 -0
              }
            }
          }
        }
      }
    }
  }
}
MOTION
Frames: 21
Frame Time: 0.0416666666667
0 103.5113 0 1.034128 -0.7050639 -0.09190717 2.982999 -14.48741 9.503236 -0 41.46478 -0 -5.575074 -17.87569 -3.378009 -7.178489 8.678837 -22.68154 -0 6.611709 -0 13.81665 -12.07304 28.19222 -4.200016 -4.538198 4.595285 3.235597 10.39853 -8.048602 1.027827 22.00232 6.400072 2.281211 -24.90036 9.342919 6.85365 -20.35726 12.2472 84.52454 36.68261 -17.04037 -0 0 16.62323 -8.030974 8.610364 5.809498 5.027352 -18.77212 -1.274623 -92.39386 20.21777 20.89889 0 0 -11.77887 14.03881 15.04025 -2.932425
0.3670705 103.5777 1.518863 0.9225335 -0.4178649 -0.1853909 3.33078 -15.92343 9.443388 -0 40.1886 -0 -5.59917 -17.1128 -3.21718 -7.123124 8.790063 -22.46276 -0 6.310835 -0 13.54279 -12.95463 28.12627 -4.06641 -4.392999 4.733431 3.108893 10.35774 -8.028119 1.123304 21.80403 6.444008 2.45596 -24.9977 9.383517 6.767671 -20.32779 12.14993 84.66662 36.61304 -17.24939 -0 0 16.7197 -7.958674 8.679872 5.505569 5.482656 -19.15395 -1.132534 -92.34354 20.14903 20.70487 0 0 -12.40905 14.40063 15.13161 -3.2183
0.7131648 103.4553 3.255127 0.5922689 0.3275807 -0.2309762 4.241908 -19.55596 9.285733 -0 36.76711 -0 -5.699645 -15.09254 -2.859616 -6.934054 9.252436 -21.85386 -0 5.621111 -0 12.53673 -15.35513 27.69175 -3.733756 -3.968527 4.963895 2.880403 10.17717 -8.032068 1.329018 21.31785 6.593076 2.877294 -25.34809 9.493407 6.494996 -20.20949 11.89175 85.07197 36.31086 -17.90953 -0 0 16.80663 -7.796034 8.818385 4.828481 6.509387 -20.04854 -0.7871629 -92.28803 20.41817 20.30789 0 0 -14.07721 14.694 15.40042 -3.266928
1.040702 103.1667 5.229973 0.2557527 1.031232 -0.2156545 5.106209 -22.73311 9.156327 -0 33.62314 -0 -5.847787 -13.14408 -2.516971 -6.730956 9.716734 -21.20349 -0 5.208147 -0 11.47193 -17.42216 27.07633 -3.413917 -3.58799 5.10653 2.717805 10.02509 -8.071849 1.475018 20.83724 6.75728 3.272237 -25.6765 9.563202 6.278135 -20.07457 11.67637 85.42218 36.05073 -18.5242 -0 0 16.82579 -7.729294 8.987329 4.289818 7.393235 -20.83998 -0.487485 -92.23319 20.606 19.95176 0 0 -15.54208 14.84872 15.5467 -3.244265
1.348305 102.7214 7.50734 -0.1323419 1.774973 -0.1303494 6.001286 -25.93913 8.962367 -0 30.20423 -0 -6.074765 -11.00578 -2.147778 -6.478986 10.29718 -20.38782 -0 5.051959 -0 10.17138 -19.45318 26.11135 -3.079936 -3.173959 5.146252 2.631772 9.85971 -8.15973 1.578912 20.32055 6.952866 3.676624 -26.04861 9.602178 6.05253 -19.87305 11.4685 85.77361 35.71128 -19.19251 -0 0 16.69968 -7.773939 9.166268 3.860891 8.213693 -21.61471 -0.2189728 -92.13879 20.76413 19.53583 0 0 -16.986 14.83153 15.57376 -3.10828
1.635023 102.143 10.14304 -0.5683949 2.534339 0.03525034 6.903763 -28.9722 8.742192 -0 26.74291 -0 -6.371328 -8.820138 -1.767811 -6.186402 10.98108 -19.46841 -0 5.263499 -0 8.625021 -21.28718 24.80847 -2.724481 -2.763109 5.081105 2.616321 9.680967 -8.287002 1.639831 19.78987 7.17511 4.066699 -26.45008 9.628009 5.82904 -19.60492 11.27278 86.13738 35.34239 -19.8977 -0 0 16.43238 -7.909165 9.378969 3.53763 8.92228 -22.32574 0.01422322 -92.01994 20.90985 19.08902 0 0 -18.34461 14.64755 15.49336 -2.863347
1.900589 101.4665 13.19951 -1.056148 3.292873 0.2911317 7.79046 -31.72904 8.481389 -0 23.31312 -0 -6.744981 -6.656077 -1.38472 -5.85127 11.77559 -18.45235 -0 5.988037 -0 6.800821 -22.80724 23.12394 -2.340717 -2.366716 4.89642 2.680029 9.48413 -8.45282 1.654623 19.26175 7.420131 4.424552 -26.87967 9.64764 5.601756 -19.25321 11.09133 86.53042 34.94552 -20.64059 -0 0 15.98815 -8.138489 9.628772 3.33508 9.473216 -22.94152 0.1961066 -91.86842 21.04384 18.60248 0 0 -19.57372 14.29206 15.29371 -2.514414
2.147039 100.7431 16.73948 -1.591424 4.016868 0.6431033 8.623234 -34.02445 8.170802 -0 20.07635 -0 -7.200299 -4.632023 -1.013567 -5.476868 12.65423 -17.36527 -0 7.421413 -0 4.707823 -23.83032 21.05648 -1.921363 -2.006619 4.587205 2.824959 9.272671 -8.651321 1.618903 18.76167 7.679313 4.726928 -27.32243 9.66506 5.373247 -18.8082 10.93209 86.96746 34.54392 -21.40807 -0 0 15.34369 -8.458976 9.919816 3.266782 9.807986 -23.41966 0.305627 -91.68175 21.15558 18.08322 0 0 -20.6024 13.77771 14.96367 -2.082367
2.379831 100.0444 20.82043 -2.158363 4.65058 1.087094 9.34496 -35.61461 7.791498 -0 17.23458 -0 -7.741569 -2.901831 -0.6782415 -5.069734 13.55169 -16.23701 -0 9.817222 -0 2.410266 -24.13177 18.65402 -1.462198 -1.70504 4.159293 3.048564 9.056958 -8.871404 1.527541 18.32729 7.937161 4.945469 -27.75124 9.676921 5.145674 -18.26537 10.80796 87.46398 34.16231 -22.17716 -0 0 14.47756 -8.865334 10.24506 3.347282 9.858565 -23.71238 0.315027 -91.45614 21.22652 17.5438 0 0 -21.34374 13.12846 14.49253 -1.598969
2.608537 99.46491 25.48115 -2.720568 5.108468 1.600252 9.884417 -36.19462 7.328059 -0 15.03499 -0 -8.369431 -1.659127 -0.4142021 -4.642358 14.33121 -15.10619 -0 13.47342 -0 0.05454423 -23.4701 16.05096 -0.9649725 -1.480122 3.644414 3.334311 8.859042 -9.091278 1.377321 18.01055 8.168883 5.050502 -28.11924 9.668671 4.922568 -17.63579 10.73772 88.03125 33.83046 -22.90808 -0 0 13.38879 -9.342577 10.58292 3.581122 9.561691 -23.77513 0.1956643 -91.19254 21.23637 17.01326 0 0 -21.7052 12.38379 13.88099 -1.103282
2.845652 99.1194 30.71989 -3.211676 5.272386 2.130497 10.1723 -35.43829 6.786277 -0 13.71983 -0 -9.078765 -1.112102 -0.2665509 -4.215171 14.74752 -14.0129 -0 18.6829 -0 -2.132653 -21.65957 13.47886 -0.4436199 -1.331669 3.11778 3.641576 8.716669 -9.272662 1.17154 17.8748 8.339188 5.021099 -28.35419 9.608777 4.708538 -16.95818 10.74509 88.66565 33.57672 -23.53771 -0 0 12.11924 -9.862252 10.89313 3.94996 8.887813 -23.58691 -0.07222821 -90.90159 21.17316 16.54354 0 0 -21.61662 11.59687 13.15268 -0.6304048
3.102017 99.12833 36.4652 -3.530852 5.003836 2.590861 10.16517 -33.09285 6.21253 -0 13.41595 -0 -9.854897 -1.419151 -0.2773067 -3.818301 14.4161 -12.98298 -0 25.61314 -0 -3.899117 -18.69251 11.2316 0.06612224 -1.220293 2.714633 3.895408 8.684053 -9.355395 0.9270021 17.98065 8.405254 4.864381 -28.35751 9.444805 4.51185 -16.31209 10.85425 89.32668 33.42054 -23.97155 -0 0 10.78628 -10.38455 11.12132 4.39853 7.886915 -23.18294 -0.4852273 -90.61016 21.04437 16.21338 0 0 -21.0762 10.82796 12.36452 -0.1945665
3.37877 99.58324 42.55095 -3.555498 4.184443 2.87183 9.855102 -29.12777 5.683992 -0 13.96607 -0 -10.66317 -2.583794 -0.4573706 -3.488985 12.83526 -12.00796 -0 34.09714 -0 -5.073124 -14.88109 9.579698 0.494002 -1.050759 2.625439 3.987255 8.818961 -9.25793 0.680792 18.3578 8.327105 4.638014 -28.01815 9.109864 4.348286 -15.8197 11.07886 89.90792 33.36739 -24.07908 -0 0 9.607143 -10.8765 11.2198 4.833194 6.732145 -22.68483 -1.004239 -90.36348 20.88058 16.11864 0 0 -20.19817 10.13174 11.60711 0.2239192
3.661102 100.4922 48.72225 -3.1827 2.788358 2.884122 9.248194 -23.86199 5.246814 -0 14.80527 -0 -11.42507 -4.361618 -0.7516728 -3.256288 9.531173 -11.04503 -0 43.38662 -0 -5.659091 -10.91765 8.678342 0.7268001 -0.689098 3.039451 3.802384 9.142929 -8.892527 0.4893662 18.97473 8.086101 4.453189 -27.2514 8.551966 4.240438 -15.61672 11.40342 90.22388 33.419 -23.70227 -0 0 8.876575 -11.35077 11.18548 5.15214 5.712997 -22.28446 -1.552673 -90.21375 20.71948 16.34053 0 0 -19.21115 9.544328 10.99068 0.6677509
3.924705 101.7298 54.70203 -2.390585 0.9554262 2.6206 8.336614 -17.91542 4.833385 -0 15.09506 -0 -11.99582 -6.296468 -1.031573 -3.111581 4.353963 -10.06501 -0 52.05211 -0 -5.841368 -7.70537 8.529571 0.6272401 -0.04242504 4.024189 3.280022 9.577647 -8.202175 0.4106863 19.74161 7.704161 4.424343 -26.05416 7.7891 4.199672 -15.78227 11.7633 90.05471 33.60711 -22.6893 -0 0 8.855924 -11.90527 11.09095 5.31246 5.123402 -22.13108 -2.030869 -90.18901 20.57438 16.89742 0 0 -18.34397 9.079987 10.6281 1.157538
4.157895 103.0426 60.30692 -1.280955 -1.00687 2.188565 7.117821 -11.90849 4.246015 -0 14.22264 -0 -12.20258 -7.964512 -1.15647 -2.990224 -2.225017 -9.123655 -0 58.26345 -0 -5.874421 -5.921606 9.024711 0.1113839 0.8323023 5.399198 2.475261 9.909462 -7.209318 0.4715427 20.57465 7.247784 4.569837 -24.53324 6.957364 4.189823 -16.26337 12.04186 89.25673 34.02471 -20.94596 -0 0 9.601553 -12.71401 11.06279 5.398621 5.069009 -22.1582 -2.349606 -90.25939 20.42614 17.7103 0 0 -17.62238 8.739092 10.6353 1.648688
4.377689 104.1346 65.52701 -0.07076746 -2.738184 1.766639 5.68127 -6.139446 3.273312 -0 12.31218 -0 -11.98012 -9.287334 -1.078415 -2.78653 -9.144502 -8.359922 -0 60.40714 -0 -5.924454 -5.592788 10.04418 -0.7362739 1.713596 6.730008 1.559445 9.866046 -6.038143 0.6419056 21.47002 6.806748 4.754985 -22.86359 6.28356 4.112935 -16.87606 12.10732 87.84612 34.78357 -18.46304 -0 0 10.88387 -13.94014 11.19202 5.632926 5.360719 -22.03864 -2.475913 -90.34951 20.27163 18.61588 0 0 -16.76467 8.506774 11.12546 2.058332
4.615203 104.7693 70.4839 0.9546785 -3.980654 1.503949 4.30432 -0.6221507 1.878792 -0 10.1245 -0 -11.49526 -10.61249 -0.8649637 -2.362989 -15.25684 -7.860276 -0 57.58704 -0 -5.964695 -6.104632 11.52996 -1.62463 2.36105 7.512392 0.7346544 9.30537 -4.87429 0.8371768 22.46925 6.461871 4.777185 -21.21606 5.9522 3.868869 -17.42288 11.88847 85.9432 35.8558 -15.29611 -0 0 12.3427 -15.61974 11.44398 6.305139 5.662217 -21.41899 -2.443852 -90.41936 20.17831 19.42646 0 0 -15.36162 8.32321 12.12249 2.363223
4.886789 104.8046 75.30969 1.505755 -4.64185 1.427541 3.419237 4.548929 0.2823097 -0 8.349991 -0 -11.08506 -12.4481 -0.5931923 -1.542862 -19.92683 -7.499347 -0 49.76072 -0 -5.813968 -6.660597 13.42498 -2.179292 2.678119 7.452763 0.1290357 8.362718 -3.886321 0.9492185 23.51196 6.266593 4.540171 -19.73504 5.961314 3.4538 -17.84083 11.43619 83.65124 36.91195 -11.56359 -0 0 13.78044 -17.60448 11.65813 7.643808 5.787949 -20.25656 -2.297848 -90.54151 20.25747 20.01308 0 0 -13.23008 8.055015 13.41816 2.67418
5.189677 104.1859 80.08467 1.388661 -4.756156 1.415707 3.347692 9.026595 -1.154268 -0 7.116327 -0 -11.00461 -15.0454 -0.2600546 -0.2139541 -23.18786 -7.000302 -0 37.94271 -0 -5.3352 -6.740354 15.51948 -2.154723 2.710461 6.658334 -0.2433334 7.395022 -3.174012 0.906583 24.36515 6.239071 4.145852 -18.54237 6.120491 2.985889 -18.23351 10.894 81.0835 37.39966 -7.546682 -0 0 15.27867 -19.61404 11.6552 9.661968 5.82496 -18.89854 -2.050554 -90.86698 20.57117 20.38508 0 0 -10.603 7.540653 14.57547 3.206926
5.527972 102.9795 84.89388 0.6505334 -4.436684 1.26547 3.940919 12.50408 -2.123561 -0 6.278186 -0 -11.20139 -18.06891 0.1893987 1.416318 -25.37363 -6.271271 -0 24.6325 -0 -4.625694 -6.248499 17.42549 -1.607022 2.511829 5.603949 -0.45009 6.752142 -2.763049 0.7502711 24.77381 6.343836 3.818243 -17.69354 6.217716 2.62183 -18.72725 10.38275 78.53812 36.95124 -3.80159 -0 0 16.96462 -21.37923 11.37106 12.05449 5.949878 -17.81039 -1.721658 -91.46519 21.06304 20.68262 0 0 -7.98913 6.74602 15.19137 4.125687
